<svg xmlns="http://www.w3.org/2000/svg" width="84" height="36" fill="none">
  <g clip-path="url(#a)">
    <path fill="#FEFEFD" d="m1.974 18.807-.002.192.002-.189v-.003Z"/>
    <path fill="#010101" d="M15.357 9.388c.274-.014.57-.03.817.026.14.03.232.082.311.204.052.28.097.557.108.841.022.604.017 1.213.012 1.82-.003.275-.006.55-.006.825v5.23c0 .172.004.461.01.813.022 1.232.056 3.236-.054 3.678-.08.316-.242.462-.516.624-.245.03-.5.037-.754.043-.132.003-.265.005-.394.011-1.222.062-2.511.188-3.633.706-.3.14-.601.303-.865.503a6.016 6.016 0 0 0-.449.399c-.401.38-.866.82-1.303.843-.505.028-.984-.404-1.425-.802-.21-.19-.413-.371-.605-.492a6.856 6.856 0 0 0-1.515-.693c-.862-.282-1.776-.426-2.68-.48-.137-.008-.278-.008-.419-.007-.262 0-.528.002-.775-.053-.216-.048-.355-.157-.517-.3-.119-.282-.155-.631-.17-.935a27.221 27.221 0 0 1-.013-1.642c.003-.243.006-.486.006-.727l.004-4.626-.004-3.501c0-.153-.007-.319-.013-.49-.019-.465-.038-.972.063-1.369.056-.218.182-.314.364-.43 2.007-.13 4.199.286 5.962 1.267.586.326 1.113.725 1.647 1.128.3-.223.602-.447.91-.658 1.66-1.134 3.637-1.694 5.64-1.744.081-.002.168-.007.256-.012Zm-.231 1.571c-.243.002-.5-.013-.741.019-1.647.149-3.76.752-4.88 2.063a3.877 3.877 0 0 0-.136.173l-.003 10.301c.183-.133.364-.27.55-.4 1.539-.919 3.464-1.076 5.218-1.202 0-3.65.048-7.306-.008-10.954Zm-13.125.002c-.038 1.525-.03 3.055-.022 4.582.004.627.007 1.252.007 1.877 0 .46-.006.923-.011 1.386v.004c-.013 1.026-.026 2.058.025 3.072 2.026.175 4.061.375 5.749 1.614-.01-3.419.009-6.837.057-10.255-1.327-1.401-3.404-2.229-5.319-2.283a9.063 9.063 0 0 0-.486.003Z"/>
    <path fill="#010101" d="m15.357 9.388.013.244-.013-.244Zm.817.026-.053.238.053-.238Zm.311.204.24-.044-.008-.049-.027-.041-.205.134Zm.108.841-.244.01.244-.01Zm.012 1.82.244.002-.244-.002Zm-.006 6.055h-.245.245Zm.01.813.245-.004-.245.004Zm-.054 3.678.237.06-.237-.06Zm-.516.624.03.242.05-.006.044-.026-.124-.21Zm-.754.043-.005-.245.005.245Zm-.394.011-.013-.244.013.244Zm-3.633.706.102.222-.102-.222Zm-.865.503.147.195-.147-.195Zm-.449.399-.168-.178.168.178Zm-1.303.843.013.244-.013-.244Zm-1.425-.802.163-.182-.163.182Zm-.605-.492.13-.207-.13.207Zm-1.515-.693.076-.232-.076.232Zm-2.68-.48-.015.244.015-.244Zm-.419-.007v-.244.244Zm-.775-.053-.053.239.053-.239Zm-.517-.3-.225.094.021.052.042.036.162-.183Zm-.17-.935.244-.012-.244.012ZM.522 20.55l-.244-.003.244.003Zm.006-.727H.284h.244Zm.004-4.626h.245-.245Zm-.004-3.501H.284h.244Zm-.013-.49-.245.009.245-.01Zm.063-1.369-.237-.06.237.06Zm.364-.43-.015-.244-.063.004L.81 9.2l.131.206Zm5.962 1.267-.119.214.12-.214Zm1.647 1.128-.148.195.147.11.147-.109-.146-.196Zm.91-.658.139.202-.138-.202Zm5.64-1.744.006.244L15.1 9.4Zm.025 1.56.244-.004-.003-.243-.243.002.002.244Zm-.741.018.022.244.01-.002-.032-.242Zm-4.88 2.063-.185-.158.186.158Zm-.136.173-.195-.146-.05.065v.081h.245Zm-.003 10.301h-.244v.48l.388-.282-.144-.198Zm.55-.4-.125-.21-.008.005-.006.005.139.2Zm5.218-1.202.017.243.227-.016v-.227h-.244ZM2 10.96l-.008-.244-.23.008-.006.23.244.006Zm-.022 4.582-.244.002.244-.002Zm.007 1.877h-.244.244Zm-.011 1.386-.245-.003v.003h.245Zm0 .004.244.003v-.003h-.244ZM2 21.882l-.244.013.01.212.213.019.021-.244Zm5.749 1.614-.145.197.39.286v-.484h-.245Zm.057-10.255.244.003.001-.1-.068-.071-.177.168Zm-5.319-2.283.007-.244h-.001l-.006.244Zm12.87-1.57.013.244c.283-.015.542-.026.75.02l.054-.238.053-.239c-.287-.064-.617-.045-.883-.03l.013.243Zm.817.026-.053.238a.314.314 0 0 1 .1.036c.017.01.036.027.06.063l.204-.133.205-.134a.68.68 0 0 0-.463-.309l-.053.239Zm.311.204-.24.044c.051.278.094.54.104.806l.244-.009.244-.009a6.09 6.09 0 0 0-.111-.876l-.24.044Zm.108.841-.244.01c.022.597.017 1.2.011 1.807l.245.003.244.002c.006-.606.01-1.22-.012-1.83l-.244.008Zm.012 1.82-.245-.003c-.002.275-.006.552-.006.828h.489c0-.273.003-.547.006-.823l-.244-.002Zm-.006.825h-.245v5.23h.489v-5.23h-.244Zm0 5.23h-.245c0 .175.005.466.011.817l.244-.004.245-.004a60.91 60.91 0 0 1-.011-.809h-.244Zm.01.813-.244.004c.01.617.025 1.423.022 2.13-.001.354-.006.68-.018.945-.012.273-.03.456-.051.54l.237.059.237.06c.034-.139.053-.372.065-.637.012-.274.018-.609.019-.965.002-.713-.012-1.525-.022-2.14l-.245.004Zm-.054 3.678-.237-.06a.607.607 0 0 1-.132.268c-.059.067-.141.129-.271.205l.124.21.124.211c.145-.085.28-.177.39-.303.114-.13.19-.281.239-.472l-.237-.06Zm-.516.624-.03-.243c-.231.03-.474.036-.73.041l.006.245.005.244c.252-.006.52-.012.78-.045l-.031-.242Zm-.754.043-.005-.245c-.13.003-.268.006-.402.012l.013.244.012.244c.125-.006.253-.008.387-.011l-.005-.244Zm-.394.011-.013-.244c-1.223.063-2.555.189-3.723.729l.103.221.102.222c1.076-.497 2.324-.622 3.543-.684l-.012-.244Zm-3.633.706-.103-.221a4.895 4.895 0 0 0-.91.53l.148.194.147.195c.245-.186.529-.341.82-.476l-.102-.222Zm-.865.503-.148-.194c-.148.112-.31.265-.469.415l.168.178.168.177c.164-.155.306-.288.428-.381l-.147-.195Zm-.449.399-.168-.178a6.47 6.47 0 0 1-.614.535c-.209.152-.387.234-.535.243l.014.244.013.244c.29-.017.563-.166.796-.335.236-.172.464-.388.662-.576l-.168-.177Zm-1.303.843-.014-.244c-.178.01-.37-.06-.59-.202a5.56 5.56 0 0 1-.658-.538l-.163.182-.164.181c.218.197.462.418.72.585.257.167.555.299.882.28l-.013-.244Zm-1.425-.802.163-.182c-.205-.185-.424-.382-.637-.517l-.13.207-.131.206c.17.108.357.274.571.467l.164-.181Zm-.605-.492.13-.207a7.097 7.097 0 0 0-1.57-.718l-.075.232-.076.233a6.611 6.611 0 0 1 1.46.666l.131-.206Zm-1.515-.693.076-.232c-.887-.29-1.822-.438-2.742-.492l-.014.244-.015.244c.89.052 1.781.195 2.619.468l.076-.232Zm-2.68-.48.015-.244c-.146-.009-.296-.008-.435-.007l.001.244v.244c.145 0 .277-.001.404.007l.015-.244Zm-.419-.007v-.244c-.269 0-.506 0-.723-.047l-.052.238-.053.239c.279.061.572.06.829.058l-.001-.244Zm-.775-.053.053-.238c-.152-.034-.251-.107-.408-.245l-.162.182-.162.183c.167.149.346.294.626.357l.053-.239Zm-.517-.3.225-.095c-.1-.24-.136-.552-.15-.852l-.245.012-.244.012c.015.307.052.693.189 1.017l.225-.095Zm-.17-.935.244-.012a26.998 26.998 0 0 1-.012-1.627l-.245-.003-.244-.003c-.007.547-.014 1.104.013 1.657l.244-.012ZM.522 20.55l.245.003c.003-.243.006-.487.006-.73H.284c0 .24-.003.481-.006.724l.244.003Zm.006-.727h.245l.004-4.626H.288l-.004 4.626h.244Zm.004-4.626h.245l-.004-3.502H.528l-.244.001.004 3.501h.244Zm-.004-3.501h.245c0-.159-.008-.33-.014-.5l-.244.01-.245.01c.007.172.014.333.014.48h.244Zm-.013-.49.244-.01c-.019-.476-.035-.943.056-1.298l-.237-.06-.237-.061c-.111.438-.088.984-.07 1.438l.244-.01Zm.063-1.369.237.06c.031-.122.087-.175.259-.284l-.132-.206L.811 9.2c-.193.123-.39.263-.47.576l.237.06Zm.364-.43.016.244c1.966-.128 4.11.281 5.827 1.237l.12-.214.118-.213C5.213 9.454 2.974 9.03.927 9.163l.015.244Zm5.962 1.267-.119.214c.569.316 1.083.704 1.618 1.11l.148-.196.147-.195c-.53-.401-1.072-.81-1.675-1.146l-.119.213Zm1.647 1.128.146.196c.3-.223.599-.444.903-.652l-.138-.202-.138-.202c-.313.214-.62.44-.92.664l.147.196Zm.91-.658.139.202c1.616-1.104 3.545-1.653 5.507-1.702L15.1 9.4l-.007-.244c-2.042.05-4.066.622-5.77 1.786l.138.202Zm5.64-1.744.006.244c.086-.002.177-.007.263-.012l-.013-.244-.013-.244c-.09.005-.172.01-.25.012l.007.244Zm.025 1.56-.002-.245c-.22.002-.51-.014-.771.02l.032.243.032.242c.22-.03.444-.014.711-.016l-.002-.245Zm-.741.018-.022-.243a10.38 10.38 0 0 0-2.703.61c-.896.342-1.745.84-2.34 1.538l.186.158.186.159c.523-.614 1.29-1.073 2.142-1.398a9.892 9.892 0 0 1 2.573-.58l-.022-.244Zm-4.88 2.063-.186-.157c-.051.06-.1.123-.145.184l.195.146.195.147c.043-.056.085-.11.128-.162l-.186-.158Zm-.136.173h-.244l-.003 10.301h.489l.002-10.3H9.37Zm-.003 10.301.144.198c.188-.137.362-.27.545-.397l-.139-.2-.14-.201c-.188.13-.376.274-.553.402l.143.198Zm.55-.4.125.21c1.481-.884 3.346-1.042 5.11-1.169l-.017-.243-.018-.244c-1.743.125-3.729.283-5.325 1.237l.125.21Zm5.218-1.202h.244c0-3.645.049-7.307-.008-10.957l-.244.003-.244.004c.056 3.646.008 7.296.007 10.95h.245ZM2 10.96l-.244-.006c-.038 1.529-.03 3.063-.022 4.59l.244-.002h.245c-.008-1.529-.016-3.056.021-4.576l-.244-.006Zm-.022 4.582-.244.002c.003.626.007 1.251.007 1.875h.489c0-.626-.004-1.252-.007-1.878l-.245.001Zm.007 1.877h-.244c0 .458-.006.92-.012 1.383l.245.003.244.003c.006-.463.012-.928.012-1.389h-.245Zm-.011 1.386H1.73v.004h.489v-.004h-.244Zm0 .004-.245-.003c-.013 1.025-.026 2.064.026 3.088L2 21.882l.244-.012c-.05-1.005-.038-2.03-.025-3.057l-.244-.003ZM2 21.882l-.021.244c2.036.175 4 .374 5.625 1.567l.145-.197.145-.197c-1.752-1.286-3.856-1.486-5.873-1.66L2 21.882Zm5.749 1.614.244-.001c-.01-3.417.01-6.834.057-10.25l-.244-.004-.245-.004c-.048 3.42-.066 6.84-.056 10.26l.244-.001Zm.057-10.255.177-.168c-1.377-1.454-3.517-2.303-5.489-2.359l-.007.244-.007.245c1.859.052 3.871.857 5.148 2.206l.178-.168Zm-5.319-2.283.006-.244a9.344 9.344 0 0 0-.5.003l.008.244.008.245c.158-.005.316-.007.473-.003l.005-.245ZM22.86 10.513c1.958-.034 5.255-.092 6.34.324.83.318 1.535.943 1.896 1.76.356.805.381 1.871.058 2.691-.344.876-.977 1.246-1.794 1.599l.19.067c.176.06.353.122.517.203a3.237 3.237 0 0 1 1.608 1.838c.332.98.205 2.078-.245 2.995a3.607 3.607 0 0 1-1.388 1.35c-.512.287-1.019.402-1.597.478-.878.117-5.976.194-6.616-.024-.086-.03-.172-.062-.212-.147-.094-.205-.107-.518-.117-.76l-.003-.066c-.061-1.37-.041-2.758-.021-4.141.009-.615.017-1.23.018-1.84.002-.588-.006-1.181-.013-1.774-.015-1.158-.03-2.319.023-3.463.012-.248.033-.525.122-.758.069-.178.156-.24.323-.319.246-.001.557-.007.911-.013Zm4.894 7.437c-.713-.17-2.966-.052-3.823-.052v3.91c1.007.003 3.198.13 4.06-.091.319-.082.572-.21.814-.432.388-.457.59-.919.531-1.532a1.942 1.942 0 0 0-.709-1.36 2.18 2.18 0 0 0-.873-.443Zm-3.112-5.454c-.272.009-.516.016-.712.017l.002 3.48c.228 0 .507.008.81.016 1.004.026 2.285.059 2.953-.112.312-.08.57-.206.819-.409.327-.395.505-.848.463-1.368a1.682 1.682 0 0 0-.62-1.188c-.688-.534-2.49-.475-3.715-.436ZM43.054 18.298a5.159 5.159 0 1 0-10.227 1.362 5.159 5.159 0 0 0 10.227-1.362Zm-5.466-2.247c.573-.029 1.079-.019 1.587.29.571.349.926.943 1.08 1.581.22.905.168 2.152-.34 2.956-.365.577-.873.832-1.517.974-.617.062-1.23.004-1.759-.35-.558-.375-.883-.986-1.009-1.633-.179-.919-.123-2.113.432-2.9.381-.54.89-.806 1.526-.918ZM54.124 18.266a5.152 5.152 0 1 0-10.206 1.41 5.152 5.152 0 0 0 10.206-1.41Zm-5.506-2.215c.557-.045 1.097-.028 1.598.253.596.333.96.919 1.129 1.565.243.929.195 2.126-.314 2.964-.36.593-.873.869-1.53 1.017-.615.08-1.221.01-1.75-.337-.564-.37-.892-.975-1.03-1.623-.193-.916-.13-2.097.405-2.893.362-.541.867-.817 1.492-.946ZM56.181 10.096c.039-.004.077-.007.116-.008.383-.014 1.236-.088 1.496.263.111.15.127.462.141.646.058.778.011 1.592.011 2.374l.001 4.603c.545-.648 1.171-1.24 1.745-1.863.567-.614 1.112-1.321 1.74-1.87.15-.13.263-.199.457-.251.401-.11 1.855-.19 2.16.027.079.056.145.163.14.262-.028.438-2.922 3.291-3.427 3.79a407.619 407.619 0 0 0 2.808 4.03c.235.341.904 1.074.818 1.496a.341.341 0 0 1-.173.217c-.434.24-2.1.082-2.621-.088-.372-.374-.675-.914-.974-1.349l-1.812-2.64-.865.752c-.004.693.204 2.73-.242 3.194-.199.209-.46.225-.73.227-.415.005-1.216.073-1.52-.223-.077-.797-.051-1.605-.052-2.405l-.001-3.419v-4.684c0-.832-.03-1.677.009-2.508.005-.112.008-.209.075-.305.16-.23.448-.234.7-.268ZM73.789 13.9c.546-.013 1.634-.133 2.126.07.184.077.268.265.35.437.35.73.58 1.57.861 2.332.49 1.325 1.018 2.636 1.515 3.959.289-.747 2.284-6.307 2.61-6.585.161-.136.465-.165.665-.17.42-.013 1.207-.106 1.525.188.08.19.07.293.024.496-.164.71-.511 1.446-.766 2.13l-1.636 4.4-1.107 2.998c-.222.605-.418 1.252-.707 1.828-.16.32-.356.621-.601.884-.588.63-1.357.9-2.204.93-.363.012-.986.08-1.266-.18-.179-.361-.194-1.205-.079-1.595.113-.38.944-.307 1.28-.496.539-.303.686-.901.825-1.457-.433-1.31-3.696-9.322-3.664-9.775.013-.197.106-.281.249-.395ZM68.428 13.86c.274-.041.575-.03.853-.027 1.106.011 2.343.244 3.14 1.076.366.383.633.96.592 1.5-.006.091-.032.223-.11.278-.397.281-1.482.226-1.954.163-.419-.057-.386-.337-.644-.643-.285-.338-.7-.503-1.134-.535-.482-.035-1.091.122-1.45.46-.158.15-.325.534-.3.75.112.94 2.759 1.06 3.52 1.252.647.163 1.312.405 1.828.84.49.412.711.974.761 1.602.061.775-.165 1.517-.679 2.103-.893 1.02-2.195 1.319-3.49 1.414-.995.034-2.066-.103-2.962-.563-.65-.334-1.236-.855-1.452-1.574-.09-.294-.148-.638.008-.917.453-.355 1.69-.216 2.238-.196.186.282.299.613.552.847.427.393 1.056.512 1.62.484.46-.023.951-.154 1.26-.52a.99.99 0 0 0 .244-.727c-.102-1.066-2.727-1.062-3.539-1.25-.586-.134-1.184-.372-1.66-.748-.5-.398-.82-.932-.88-1.572a3.002 3.002 0 0 1 .671-2.165c.753-.911 1.834-1.22 2.967-1.331Z"/>
  </g>
  <defs>
    <clipPath id="a">
      <path fill="#fff" d="M.5 7.938h83v21H.5z"/>
    </clipPath>
  </defs>
</svg>
