<svg xmlns="http://www.w3.org/2000/svg" width="2389" height="1024">
  <path d="m56.152 534.943-.069 5.478c.022-1.792.046-3.584.069-5.373v-.105z"/>
  <path d="M436.833 267.04c7.791-.414 16.185-.848 23.222.722 3.962.883 6.596 2.336 8.86 5.806 1.459 7.963 2.756 15.843 3.055 23.944.64 17.178.498 34.483.336 51.752-.077 7.831-.168 15.667-.168 23.47v148.779c.006 4.884.131 13.102.307 23.111.603 35.049 1.596 92.041-1.556 104.613-2.261 9.003-6.864 13.15-14.669 17.749-6.969.885-14.239 1.064-21.444 1.22-3.769.085-7.532.148-11.221.336-34.739 1.764-71.424 5.333-103.333 20.082-8.542 3.948-17.104 8.593-24.61 14.305-3.849 2.93-8.169 6.997-12.751 11.335-11.426 10.817-24.629 23.305-37.083 23.999-14.357.791-27.966-11.497-40.528-22.832-5.975-5.39-11.73-10.55-17.195-14-13.255-8.368-28.246-14.828-43.111-19.695-24.52-8.018-50.5-12.137-76.222-13.665-3.884-.236-7.894-.21-11.917-.196-7.462.026-15.018.054-22.056-1.499-6.13-1.362-10.085-4.474-14.694-8.556-3.375-8.018-4.418-17.937-4.833-26.584-.744-15.46-.555-31.107-.361-46.694.087-6.912.163-13.821.167-20.693l.111-131.584-.111-99.584c-.003-4.343-.198-9.062-.389-13.943-.516-13.227-1.072-27.637 1.806-38.916 1.583-6.198 5.173-8.94 10.361-12.25 57.082-3.7 119.428 8.153 169.583 36.057 16.66 9.267 31.665 20.619 46.833 32.082 8.527-6.36 17.133-12.72 25.917-18.722 47.215-32.265 103.439-48.192 160.39-49.611 2.324-.058 4.787-.2 7.305-.333zm-6.582 44.694c-6.915.057-14.239-.381-21.086.529-46.851 4.235-106.962 21.376-138.777 58.692a110.278 110.278 0 0 0-3.889 4.918l-.083 293.001c5.202-3.78 10.355-7.691 15.639-11.361 43.771-26.149 98.529-30.638 148.418-34.224.003-103.785 1.382-207.787-.222-311.555zm-373.335.057c-1.074 43.355-.838 86.886-.611 130.332.094 17.809.192 35.61.194 53.39.003 13.065-.166 26.231-.333 39.415v.111c-.368 29.184-.73 58.536.722 87.39 57.641 4.961 115.513 10.652 163.528 45.889-.284-97.24.249-194.472 1.611-291.695-37.747-39.851-96.81-63.388-151.278-64.919a258.276 258.276 0 0 0-13.833.085z"/>
  <path d="M436.833 267.04zm23.222.722zm8.86 5.806 6.838-1.252-.253-1.377-.765-1.172-5.82 3.8zm3.055 23.944zm.336 51.752zm-.168 172.248h-6.949v.009l6.949-.009zm.307 23.111zm-1.556 104.613zm-14.669 17.749.876 6.895 1.419-.182 1.234-.725-3.53-5.988zm-21.444 1.221zm-11.221.335-.35-6.943h-.003l.353 6.943zm-103.333 20.082zm-24.61 14.305zm-12.752 11.335zm-37.083 23.998.383 6.94h.005l-.387-6.94zm-40.528-22.832zm-17.194-14zm-43.111-19.695 2.162-6.605h-.002l-2.16 6.605zm-76.223-13.665-.417 6.938h.005l.412-6.938zm-11.916-.196zm-22.056-1.499-1.508 6.784.011.003 1.498-6.787zm-14.694-8.556-6.406 2.697.614 1.459 1.184 1.047 4.608-5.202zm-4.833-26.585zm-.362-46.694zm.167-20.693zm.111-131.584 6.951.006v-.014l-6.951.009zm-.111-99.584zm-.389-13.944zm1.806-38.916zm10.361-12.25-.45-6.936-1.783.115-1.506.961 3.739 5.859zm169.583 36.057zm46.834 32.082-4.191 5.544 4.163 3.146 4.183-3.118-4.155-5.572zm25.916-18.722zm160.39-49.611.171 6.948h.003l-.174-6.948zm.723 44.36 6.949-.108-.108-6.898-6.901.057.06 6.949zm-21.086.529.629 6.926.287-.037-.916-6.889zm-138.777 58.692-5.289-4.508-.02.023 5.309 4.486zm-3.889 4.918-5.557-4.176-1.393 1.855-.001 2.318 6.951.003zm-.083 293.001-6.951-.003-.004 13.65 11.041-8.027-4.087-5.621zm15.639-11.361-3.564-5.968-.205.122-.196.137 3.965 5.709zm148.418-34.224.498 6.935 6.451-.464v-6.471h-6.949zM56.916 311.791l-.226-6.949-6.56.216-.162 6.559 6.948.174zm-.611 130.332zm.194 53.391zm-.333 39.415-6.95-.088v.088h6.95zm0 .111 6.951.088v-.088h-6.951zm.722 87.39-6.942.35.305 6.053 6.041.521.596-6.923zm163.528 45.889-4.112 5.604 11.103 8.146-.04-13.773-6.95.023zm1.611-291.695 6.95.097.04-2.825-1.943-2.054-5.046 4.782zM70.749 311.706l.195-6.946-.046-.003-.149 6.949zm366.084-44.666.37 6.941c8.036-.427 15.411-.757 21.339.565l3.026-13.568c-8.149-1.817-17.559-1.28-25.105-.879l.37 6.941zm23.222.722-1.513 6.784c1.533.341 2.344.694 2.87 1.026.469.296 1.013.765 1.684 1.796l11.639-7.6c-1.593-2.439-3.499-4.432-5.902-5.95-2.347-1.483-4.833-2.298-7.265-2.84l-1.513 6.784zm8.86 5.806-6.835 1.252c1.451 7.926 2.665 15.385 2.947 22.951l13.889-.515c-.319-8.639-1.698-16.94-3.163-24.94l-6.838 1.252zm3.055 23.944-6.943.259c.631 16.99.492 34.139.327 51.425l13.901.134c.165-17.252.31-34.711-.338-52.076l-6.946.259zm.336 51.752-6.952-.068c-.074 7.811-.165 15.693-.165 23.538h13.901c0-7.76.091-15.551.165-23.404l-6.949-.065zm-.168 23.469h-6.949v148.779h13.901V372.733h-6.952zm0 148.779-6.949.009c.003 4.952.131 13.232.304 23.225l13.901-.242c-.174-10.027-.299-18.185-.304-23l-6.952.009zm.307 23.111-6.952.119c.304 17.542.703 40.476.631 60.592-.034 10.061-.188 19.351-.521 26.871-.347 7.754-.868 12.982-1.456 15.337l13.483 3.382c.984-3.928 1.525-10.542 1.86-18.102.347-7.797.501-17.303.535-27.44.071-20.287-.33-43.372-.631-60.88l-6.949.119zm-1.556 104.613-6.741-1.695c-.902 3.587-2.156 5.837-3.732 7.629-1.681 1.909-4.031 3.649-7.723 5.828l7.057 11.975c4.11-2.421 7.962-5.052 11.102-8.619 3.24-3.684 5.416-8.01 6.778-13.426l-6.741-1.692zm-14.669 17.749-.873-6.895c-6.554.831-13.468 1.007-20.725 1.166l.307 13.898c7.151-.156 14.78-.336 22.167-1.274l-.876-6.895zm-21.444 1.221-.154-6.949c-3.715.082-7.603.151-11.418.341l.35 6.943.35 6.94c3.564-.179 7.199-.242 11.025-.327l-.154-6.949zm-11.221.335-.353-6.943c-34.79 1.769-72.667 5.359-105.896 20.716l5.831 12.618c30.586-14.137 66.082-17.687 100.77-19.45l-.353-6.94zm-103.333 20.082-2.916-6.309c-8.789 4.062-17.846 8.951-25.904 15.084l8.417 11.062c6.955-5.294 15.024-9.694 23.319-13.528l-2.916-6.309zm-24.61 14.305-4.21-5.53c-4.207 3.2-8.813 7.552-13.32 11.816l9.556 10.095c4.659-4.409 8.69-8.192 12.18-10.849l-4.207-5.532zm-12.752 11.335-4.778-5.049c-5.783 5.476-11.607 10.971-17.46 15.218-5.959 4.324-11.033 6.656-15.233 6.892l.387 6.938.387 6.94c8.255-.461 16.008-4.719 22.622-9.518 6.719-4.875 13.209-11.031 18.853-16.375l-4.778-5.046zm-37.083 23.998-.383-6.94c-5.059.279-10.553-1.724-16.772-5.76-6.218-4.033-12.343-9.54-18.717-15.292l-9.312 10.32c6.187 5.584 13.147 11.887 20.464 16.634 7.315 4.747 15.804 8.491 25.103 7.979l-.383-6.94zm-40.528-22.832 4.656-5.16c-5.856-5.285-12.072-10.886-18.138-14.717l-7.423 11.753c4.862 3.072 10.156 7.788 16.251 13.284l4.656-5.16zm-17.194-14 3.711-5.877c-13.862-8.752-29.409-15.431-44.659-20.423l-4.324 13.212c14.479 4.739 28.915 10.98 41.562 18.964l3.711-5.877zm-43.111-19.695 2.16-6.605c-25.215-8.246-51.806-12.444-77.97-14l-.412 6.94-.412 6.938c25.281 1.502 50.649 5.544 74.474 13.335l2.16-6.608zm-76.223-13.665.418-6.94c-4.149-.247-8.399-.219-12.358-.205l.024 6.949.023 6.952c4.086-.014 7.857-.037 11.476.182l.417-6.938zm-11.916-.196-.024-6.949c-7.622.026-14.383.02-20.534-1.337l-2.996 13.574c7.923 1.749 16.275 1.687 23.577 1.664l-.023-6.952zm-22.056-1.499 1.509-6.784c-4.303-.959-7.139-3.029-11.595-6.975l-9.216 10.405c4.762 4.218 9.837 8.368 17.794 10.138l1.508-6.784zm-14.694-8.556 6.406-2.697c-2.869-6.815-3.887-15.684-4.297-24.22l-13.885.668c.421 8.752 1.488 19.723 5.37 28.945l6.406-2.697zm-4.833-26.585 6.943-.333c-.732-15.218-.548-30.655-.354-46.273l-13.9-.174c-.194 15.551-.387 31.408.369 47.115l6.943-.336zm-.362-46.694 6.95.088c.087-6.918.163-13.861.167-20.779l-13.901-.006c-.004 6.827-.079 13.699-.166 20.611l6.95.085zm.167-20.693 6.951.006.111-131.584-13.901-.011-.111 131.584 6.951.006zm.111-131.584 6.951-.009-.111-99.581-13.901.014.111 99.584 6.951-.009zm-.111-99.584 6.951-.003c-.003-4.508-.205-9.378-.394-14.214l-13.891.546c.193 4.927.381 9.498.384 13.676l6.951-.006zm-.389-13.944 6.945-.27c-.528-13.54-.98-26.832 1.595-36.928L9.708 278.1c-3.179 12.46-2.52 27.991-2.016 40.905l6.945-.27zm1.806-38.916 6.734 1.72c.891-3.487 2.473-4.989 7.365-8.11l-7.478-11.719c-5.485 3.5-11.082 7.482-13.357 16.39l6.734 1.72zm10.361-12.25.45 6.936c55.926-3.626 116.912 8.02 165.755 35.193l6.758-12.149C148.3 268.916 84.594 256.856 26.356 260.631l.45 6.936zm169.583 36.057-3.379 6.073c16.164 8.991 30.787 20.042 46.021 31.553l8.382-11.09c-15.104-11.415-30.491-23.068-47.645-32.612l-3.379 6.076zm46.834 32.082 4.155 5.572c8.524-6.357 17.029-12.644 25.683-18.557l-7.843-11.477c-8.913 6.09-17.62 12.53-26.15 18.89l4.155 5.572zm25.916-18.722 3.921 5.737c45.968-31.408 100.846-47.01 156.639-48.4l-.171-6.948-.174-6.948c-58.109 1.448-115.675 17.704-164.138 50.82l3.921 5.74zm160.39-49.611.174 6.948c2.446-.061 5.038-.21 7.501-.341l-.74-13.881c-2.569.137-4.91.271-7.108.326l.174 6.948zm.723 44.36-.06-6.949c-6.244.051-14.527-.395-21.939.586l.913 6.892.916 6.889c6.278-.833 12.641-.404 20.227-.466l-.057-6.952zm-21.086.529-.626-6.923c-23.945 2.165-51.325 7.626-76.877 17.368-25.498 9.722-49.638 23.885-66.563 43.739l10.579 9.02c14.888-17.465 36.714-30.532 60.937-39.768 24.169-9.216 50.273-14.444 73.176-16.515l-.626-6.921zm-138.777 58.692-5.309-4.486a117.63 117.63 0 0 0-4.137 5.228l11.114 8.351c1.209-1.61 2.41-3.149 3.641-4.608l-5.309-4.486zm-3.889 4.918-6.951-.003-.083 293.001 13.901.006.083-293.001-6.95-.003zm-.083 293.001 4.087 5.621c5.365-3.9 10.307-7.654 15.518-11.273l-7.93-11.418c-5.357 3.721-10.722 7.785-15.761 11.446l4.087 5.623zm15.639-11.361 3.564 5.965c42.121-25.159 95.167-29.648 145.351-33.254l-.498-6.935-.501-6.932c-49.59 3.567-106.061 8.055-151.481 35.189l3.564 5.968zm148.418-34.224h6.949c.003-103.657 1.385-207.829-.222-311.663l-13.901.216c1.607 103.7.225 207.534.222 311.447h6.952zM56.916 311.791l-6.948-.174c-1.077 43.477-.84 87.114-.613 130.543l13.901-.074c-.227-43.466-.462-86.892.609-130.125l-6.948-.171zm-.611 130.332-6.951.037c.094 17.812.192 35.595.195 53.353l13.901-.003c-.003-17.801-.101-35.621-.195-53.424l-6.95.037zm.194 53.391h-6.95c.003 13.013-.166 26.132-.333 39.327l13.9.176c.167-13.175.337-26.388.334-39.506l-6.951.003zm-.333 39.415h-6.95v.111h13.901v-.111h-6.951zm0 .111-6.95-.088c-.368 29.147-.735 58.721.73 87.828l13.883-.7c-1.44-28.598-1.082-57.731-.714-86.952l-6.95-.088zm.722 87.39-.596 6.923c57.909 4.986 113.801 10.658 160.012 44.57l8.224-11.21c-49.818-36.557-109.672-42.268-167.044-47.209l-.596 6.926zm163.528 45.889 6.95-.023c-.284-97.198.249-194.392 1.611-291.575l-13.9-.196a17245.38 17245.38 0 0 0-1.612 291.814l6.951-.02zm1.611-291.695 5.046-4.782c-39.161-41.341-100.05-65.51-156.129-67.083l-.195 6.946-.195 6.949c52.855 1.485 110.095 24.394 146.427 62.748l5.046-4.779zM70.749 311.706l.149-6.949c-4.74-.1-9.483-.068-14.209.085l.226 6.949.226 6.946c4.487-.145 8.98-.176 13.458-.082l.149-6.949zM650.254 299.031c55.677-.967 149.447-2.606 180.332 9.222 23.583 9.037 43.645 26.815 53.919 50.057 10.123 22.912 10.843 53.228 1.664 76.555-9.805 24.906-27.793 35.436-51.055 45.471 1.795.654 3.624 1.289 5.444 1.917 4.983 1.721 10.004 3.465 14.694 5.777a92.065 92.065 0 0 1 45.724 52.278c9.452 27.87 5.82 59.09-6.975 85.194-9.54 16.438-22.915 29.161-39.472 38.417-14.566 8.146-28.974 11.401-45.414 13.582-24.994 3.322-169.984 5.507-188.194-.694-2.455-.833-4.904-1.766-6.03-4.193-2.682-5.814-3.049-14.726-3.331-21.584l-.085-1.889c-1.746-38.975-1.172-78.473-.612-117.806.25-17.496.484-34.964.529-52.335.043-16.737-.171-33.593-.39-50.472-.424-32.91-.836-65.943.668-98.5.327-7.054.927-14.925 3.47-21.555 1.946-5.06 4.429-6.807 9.196-9.054 6.986-.048 15.826-.216 25.916-.39zM789.45 510.586c-20.295-4.838-84.355-1.488-108.752-1.473l.028 111.223c28.626.057 90.945 3.669 115.473-2.611 9.06-2.321 16.247-5.959 23.137-12.279 11.036-13.01 16.762-26.135 15.113-43.583-1.471-15.508-8.098-28.7-20.167-38.667a61.992 61.992 0 0 0-24.832-12.609zm-88.528-155.139c-7.726.247-14.663.464-20.252.472l.057 99.001c6.5.017 14.416.222 23.054.444 28.558.731 64.984 1.67 84.002-3.194 8.858-2.267 16.193-5.851 23.276-11.611 9.296-11.258 14.362-24.118 13.167-38.918-1.047-13.013-7.256-25.748-17.638-33.806-19.55-15.167-70.804-13.514-105.665-12.388zM1224.658 520.465c-10.706-80.358-84.543-136.809-164.89-126.069-80.287 10.735-136.684 84.5-125.998 164.784 10.689 80.293 84.423 136.732 164.722 126.097 80.358-10.661 136.855-84.463 126.165-164.813zm-155.494-63.909c16.307-.814 30.692-.532 45.156 8.28 16.233 9.896 26.331 26.8 30.729 44.956 6.232 25.742 4.773 61.19-9.705 84.085-10.374 16.404-24.829 23.66-43.13 27.694-17.562 1.764-34.987.111-50.034-9.981-15.866-10.65-25.105-28.026-28.695-46.43-5.1-26.135-3.499-60.095 12.291-82.472 10.837-15.357 25.281-22.926 43.389-26.132zM1539.541 519.578c-11.093-80.338-85.325-136.385-165.632-125.062-79.989 11.278-135.76 85.146-124.709 165.166 11.054 80 84.77 135.996 164.813 125.167 80.364-10.871 136.622-84.938 125.528-165.271zm-156.638-63.005c15.861-1.306 31.206-.814 45.468 7.177 16.933 9.486 27.275 26.138 32.1 44.521 6.923 26.416 5.558 60.487-8.912 84.301-10.246 16.876-24.855 24.73-43.537 28.928-17.488 2.267-34.728.319-49.769-9.563-16.054-10.553-25.37-27.733-29.275-46.18-5.504-26.066-3.723-59.642 11.483-82.298 10.314-15.377 24.676-23.225 42.442-26.886zM1598.04 287.164a56.025 56.025 0 0 1 3.294-.219c10.9-.384 35.172-2.495 42.567 7.484 3.154 4.25 3.612 13.133 4.002 18.372 1.655 22.138.321 45.295.321 67.53l.026 130.918c15.488-18.406 33.308-35.26 49.641-52.966 16.125-17.49 31.627-37.601 49.488-53.18 4.255-3.709 7.481-5.675 12.985-7.177 11.412-3.106 52.756-5.41 61.457.785 2.224 1.579 4.116 4.642 3.948 7.441-.779 12.462-83.1 93.628-97.448 107.833 26.399 38.372 53.02 76.57 79.878 114.617 6.684 9.705 25.688 30.529 23.242 42.553-.529 2.614-2.6 4.907-4.907 6.172-12.345 6.798-59.762 2.321-74.567-2.503-10.578-10.635-19.197-26.01-27.705-38.366l-51.516-75.11-24.622 21.396c-.097 19.698 5.797 77.65-6.866 90.857-5.672 5.922-13.082 6.38-20.796 6.451-11.787.125-34.586 2.085-43.204-6.34-2.21-22.687-1.473-45.65-1.488-68.42l-.043-97.24.014-133.237c0-23.68-.848-47.713.25-71.356.154-3.183.236-5.928 2.128-8.647 4.531-6.559 12.746-6.673 19.92-7.649zM2098.887 395.361c15.542-.338 46.487-3.777 60.47 2.017 5.242 2.17 7.617 7.521 9.967 12.419 9.956 20.75 16.475 44.658 24.482 66.327 13.941 37.703 28.954 74.997 43.093 112.612 8.215-21.228 64.959-179.402 74.26-187.292 4.56-3.86 13.204-4.69 18.89-4.858 11.969-.35 34.324-2.992 43.386 5.367 2.293 5.39 1.988 8.337.668 14.114-4.645 20.176-14.527 41.136-21.771 60.587l-46.555 125.121-31.471 85.299c-6.326 17.209-11.898 35.627-20.102 52.002-4.574 9.119-10.135 17.67-17.112 25.134-16.722 17.92-38.602 25.62-62.694 26.456-10.328.361-28.038 2.278-36.005-5.103-5.086-10.288-5.518-34.281-2.236-45.375 3.197-10.8 26.843-8.744 36.378-14.108 15.349-8.633 19.533-25.634 23.492-41.441-12.328-37.268-105.134-265.168-104.229-278.056.39-5.598 3.029-7.996 7.088-11.221zM1946.408 394.26c7.785-1.186 16.333-.862 24.243-.782 31.46.313 66.657 6.946 89.316 30.609 10.411 10.88 18.002 27.315 16.862 42.641-.193 2.614-.916 6.363-3.14 7.936-11.304 7.987-42.149 6.42-55.578 4.614-11.913-1.604-10.997-9.569-18.335-18.29-8.092-9.594-19.922-14.308-32.239-15.204-13.705-.996-31.039 3.465-41.244 13.087-4.503 4.25-9.256 15.198-8.519 21.325 3.169 26.721 78.458 30.16 100.13 35.615 18.375 4.628 37.296 11.509 51.977 23.879 13.926 11.733 20.224 27.719 21.643 45.596 1.738 22.033-4.685 43.136-19.308 59.816-25.412 28.985-62.433 37.507-99.268 40.203-28.316.959-58.789-2.918-84.255-16-18.475-9.495-35.157-24.329-41.316-44.789-2.529-8.357-4.213-18.142.236-26.066 12.874-10.092 48.043-6.144 63.667-5.575 5.271 8.021 8.494 17.434 15.696 24.078 12.134 11.19 30.04 14.569 46.069 13.776 13.107-.654 27.065-4.378 35.851-14.791 4.85-5.74 7.657-13.107 6.935-20.685-2.904-30.305-77.554-30.194-100.656-35.53-16.683-3.837-33.698-10.607-47.209-21.311-14.234-11.304-23.327-26.502-25.051-44.718a85.39 85.39 0 0 1 19.1-61.557c21.396-25.927 52.159-34.728 84.395-37.879z"/>
</svg>