<svg xmlns="http://www.w3.org/2000/svg" width="121" height="32" viewBox="0 0 121 32">
  <path fill="#fefefd" d="m2.144 16.94-.004.28.004-.275z"/>
  <path fill="#010101" d="M21.611 3.241c.398-.021.828-.043 1.188.037.203.045.337.119.453.297.075.407.141.81.156 1.224.033.878.025 1.763.017 2.646q-.008.601-.009 1.2v7.608c0 .25.007.67.016 1.182.031 1.792.082 4.707-.08 5.35-.116.46-.351.672-.75.908-.356.045-.728.054-1.097.063-.193.004-.385.007-.574.017-1.776.09-3.652.273-5.284 1.027a6.7 6.7 0 0 0-1.259.732c-.197.15-.418.358-.652.579-.584.553-1.259 1.192-1.896 1.227-.734.04-1.43-.588-2.072-1.168-.306-.276-.6-.539-.879-.716-.678-.428-1.444-.758-2.205-1.007-1.254-.41-2.582-.621-3.898-.699-.199-.012-.404-.011-.609-.01-.382.001-.768.003-1.128-.077-.313-.07-.516-.229-.751-.438-.173-.41-.226-.917-.247-1.359a40 40 0 0 1-.018-2.388q.007-.531.009-1.058l.006-6.729-.006-5.092c0-.222-.01-.463-.02-.713-.026-.676-.055-1.413.092-1.99.081-.317.265-.457.53-.626 2.919-.189 6.107.417 8.672 1.844.852.474 1.619 1.054 2.395 1.641.436-.325.876-.65 1.325-.957 2.414-1.65 5.289-2.464 8.202-2.537q.18-.006.374-.017zm-.337 2.286c-.354.003-.728-.019-1.078.027-2.396.217-5.47 1.093-7.097 3.001a6 6 0 0 0-.199.251l-.004 14.983c.266-.193.53-.393.8-.581 2.238-1.337 5.038-1.567 7.59-1.75 0-5.307.071-10.626-.011-15.932zM2.183 5.53c-.055 2.217-.043 4.443-.031 6.665q.009 1.366.01 2.73c0 .668-.009 1.341-.017 2.016v.006c-.019 1.492-.037 2.993.037 4.469 2.948.254 5.907.545 8.362 2.347q-.022-7.46.082-14.916c-1.93-2.038-4.951-3.241-7.736-3.32a14 14 0 0 0-.707.004z"/>
  <path fill="#010101" d="m23.251 3.575.35-.064-.013-.07-.039-.06zm.165 12.679h-.355zm-.814 7.439.045.353.073-.009.063-.037-.18-.306zm-1.67.08-.018-.355zm-9.091 3.565.02.355zm-5.156-2.891.111-.338zm-3.898-.699-.021.355zm-1.737-.086-.077.347h.001l.077-.347zm-.752-.438-.328.138.031.075.061.054.236-.266zM.047 11.69h.355v-.001zm.596-8.422L.62 2.913l-.091.006-.077.049zM11.71 6.753l-.214.284.213.161.214-.16zm9.527-3.495.009.355zm.037 2.269.355-.005-.006-.353-.353.003.003.355zm-1.078.027.032.354.015-.002zm-7.097 3.001-.27-.231-.001.001.271.229zm-.198.252-.284-.213-.071.095v.119h.355zm-.005 14.983h-.355v.698l.565-.41zm.8-.581-.182-.305-.01.006-.01.007zm7.59-1.75.025.354.33-.024v-.331h-.355zM2.183 5.53l-.012-.355-.335.011-.008.335zm-.038 11.41-.355-.005v.005zm0 .006.355.005v-.005zm.037 4.469-.355.018.016.31.309.026zm8.362 2.346-.21.287.568.417-.002-.704-.355.001zm.082-14.916.355.005.002-.145-.099-.105zm-7.735-3.32.01-.355h-.002zm18.72-2.284.019.355c.411-.022.788-.039 1.091.029l.155-.694c-.417-.093-.898-.065-1.284-.045zm1.187.037-.077.347c.078.017.12.035.147.052a.3.3 0 0 1 .086.092l.595-.389a1 1 0 0 0-.302-.304 1.2 1.2 0 0 0-.372-.145zm.453.297-.35.064c.074.405.136.787.151 1.174l.71-.026a9 9 0 0 0-.162-1.275l-.35.064zm.157 1.225-.355.013c.032.869.025 1.746.017 2.63l.711.007a58 58 0 0 0-.017-2.663zm.017 2.646-.355-.003c-.004.399-.008.803-.008 1.204h.711q.002-.595.008-1.197l-.355-.003zm-.009 1.2h-.355v7.608h.711V8.646zm0 7.608h-.355c0 .253.007.677.016 1.188l.711-.012c-.009-.513-.015-.93-.016-1.176zm.016 1.182-.355.006c.016.897.036 2.07.032 3.098-.002.514-.01.99-.027 1.374-.018.396-.044.664-.074.784l.689.173c.05-.201.078-.539.095-.926a34 34 0 0 0 .027-1.403c.004-1.037-.017-2.218-.032-3.113l-.355.006zm-.08 5.349-.345-.087a.9.9 0 0 1-.191.39 1.6 1.6 0 0 1-.395.298l.361.612c.21-.124.407-.258.568-.441.166-.188.277-.41.347-.687l-.345-.087zm-.75.908-.045-.353c-.335.042-.689.052-1.06.06l.016.711c.366-.008.756-.017 1.134-.065zm-1.096.063-.008-.355c-.19.004-.389.008-.584.017l.018.355.018.355q.271-.012.564-.017zm-.574.017-.018-.355c-1.779.09-3.716.274-5.415 1.059l.298.645c1.564-.723 3.379-.904 5.153-.995l-.018-.355zM15.648 24.8l-.149-.323a7.2 7.2 0 0 0-1.325.771l.43.566a6.4 6.4 0 0 1 1.192-.692l-.149-.323zm-1.259.731-.215-.283a9 9 0 0 0-.681.604l.489.516c.238-.226.444-.419.623-.555l-.215-.283zm-.652.58-.244-.258c-.296.28-.594.561-.893.778q-.457.333-.779.352l.02.355.02.355c.422-.024.819-.241 1.157-.487.344-.249.675-.564.964-.837zm-1.896 1.227-.02-.355c-.259.014-.54-.088-.858-.295s-.631-.488-.957-.782l-.476.528c.316.286.672.608 1.046.851s.808.434 1.284.408l-.02-.355zM9.768 26.17l.238-.264c-.299-.27-.617-.557-.928-.753l-.38.601c.249.157.519.398.831.679l.238-.264zm-.879-.716.19-.3c-.709-.448-1.504-.789-2.284-1.044l-.221.676c.74.242 1.479.561 2.125.97zm-2.204-1.007.11-.338c-1.289-.422-2.649-.636-3.987-.716l-.042.71c1.293.077 2.59.284 3.808.682zm-3.898-.699.021-.355c-.212-.013-.429-.011-.632-.011l.001.355.001.355c.209-.001.402-.002.587.009l.021-.355zm-.609-.01-.001-.355c-.39.001-.735.001-1.05-.068l-.153.694c.405.089.832.086 1.206.085zm-1.128-.076.077-.347c-.22-.049-.365-.155-.593-.357l-.471.532c.244.216.503.428.91.518l.077-.347zm-.752-.438.328-.138c-.147-.349-.199-.802-.22-1.239l-.71.034c.022.448.076 1.009.275 1.48l.328-.138zm-.247-1.359.355-.017a40 40 0 0 1-.018-2.366l-.711-.009c-.01.795-.02 1.606.019 2.409zm-.018-2.388.355.004q.007-.532.009-1.062h-.711q0 .524-.009 1.054zm.008-1.058h.355l.006-6.729-.711-.001-.006 6.729H.04zm.006-6.729h.355L.396 6.598l-.711.001.006 5.092h.355zM.041 6.598h.355c0-.23-.01-.48-.02-.727l-.71.028q.017.379.02.699zm-.02-.713.355-.014c-.027-.692-.05-1.372.082-1.888l-.689-.176c-.163.637-.129 1.431-.103 2.092zm.093-1.99.344.088c.046-.178.126-.255.377-.415l-.382-.599c-.281.179-.567.383-.683.838zm.529-.627.023.355c2.86-.185 5.978.41 8.476 1.8l.346-.621C6.856 3.338 3.598 2.721.62 2.914zm8.672 1.844-.173.311c.827.46 1.574 1.025 2.353 1.614l.429-.567c-.772-.584-1.559-1.18-2.436-1.668zm2.395 1.641.212.285a41 41 0 0 1 1.313-.949l-.401-.587a39 39 0 0 0-1.337.966zm1.325-.958.201.293c2.351-1.606 5.157-2.404 8.01-2.475l-.009-.355-.009-.355c-2.971.074-5.915.905-8.393 2.599l.201.293zm8.202-2.537.009.355c.125-.003.258-.011.384-.017l-.038-.71q-.196.011-.363.017l.009.355zm.037 2.269-.003-.355c-.319.003-.743-.02-1.122.03l.047.352.047.352c.321-.043.646-.021 1.034-.024zm-1.078.027-.032-.354c-1.224.111-2.625.39-3.931.888-1.304.497-2.538 1.221-3.404 2.237l.541.461c.761-.893 1.877-1.561 3.116-2.034a14.4 14.4 0 0 1 3.742-.844zm-7.097 3.001-.271-.229a7 7 0 0 0-.212.267l.568.427a6 6 0 0 1 .186-.236zm-.198.252h-.355l-.004 14.983h.711l.004-14.983zm-.005 14.983.209.288c.274-.199.527-.392.793-.577l-.405-.584c-.274.19-.548.398-.806.585zm.8-.581.182.305c2.154-1.287 4.866-1.516 7.433-1.701l-.025-.354-.026-.355c-2.536.182-5.424.412-7.746 1.799l.182.305zm7.59-1.75h.355c0-5.301.071-10.628-.011-15.937l-.711.011c.082 5.303.012 10.612.011 15.926zM2.183 5.53l-.355-.009c-.055 2.223-.043 4.455-.031 6.675l.711-.004c-.012-2.223-.024-4.443.031-6.654l-.355-.009zm-.031 6.664-.355.002q.009 1.366.01 2.728h.711q-.001-1.365-.01-2.732l-.355.002zm.01 2.731h-.355q-.002.998-.017 2.011l.711.009q.015-1.012.017-2.02zm-.017 2.015H1.79v.006h.711v-.006zm0 .006-.355-.005c-.019 1.491-.038 3.003.037 4.491l.71-.036c-.074-1.462-.055-2.952-.037-4.446zm.037 4.469-.03.354c2.961.255 5.819.545 8.182 2.279l.421-.573c-2.548-1.87-5.608-2.162-8.542-2.414zm8.362 2.346.355-.001a893 893 0 0 1 .082-14.91l-.711-.01q-.105 7.461-.082 14.922zm.082-14.916.258-.244C8.881 6.487 5.768 5.251 2.9 5.171l-.02.711c2.703.076 5.63 1.247 7.488 3.209l.258-.244zm-7.735-3.32.008-.355a15 15 0 0 0-.727.004l.023.71q.344-.011.688-.004zM32.524 4.877c2.847-.049 7.642-.133 9.222.472 1.206.462 2.232 1.371 2.757 2.56.518 1.172.554 2.722.085 3.915-.501 1.274-1.421 1.812-2.611 2.325l.278.098c.255.088.512.177.751.295a4.7 4.7 0 0 1 2.338 2.673c.483 1.425.298 3.022-.357 4.357a5.25 5.25 0 0 1-2.018 1.965c-.745.416-1.482.583-2.322.695-1.278.17-8.692.281-9.624-.035-.126-.043-.251-.09-.308-.215-.137-.297-.156-.753-.17-1.104l-.004-.097c-.089-1.993-.06-4.013-.031-6.024.013-.895.025-1.788.027-2.676.002-.856-.009-1.718-.02-2.581-.022-1.683-.043-3.372.034-5.037.017-.361.047-.763.177-1.102.099-.259.226-.348.47-.463.357-.002.809-.011 1.325-.02zm7.118 10.818c-1.038-.247-4.314-.076-5.561-.075l.001 5.687c1.464.003 4.651.188 5.905-.134a2.6 2.6 0 0 0 1.183-.628c.564-.665.857-1.337.773-2.229-.075-.793-.414-1.468-1.031-1.977a3.2 3.2 0 0 0-1.27-.645zm-4.527-7.933c-.395.013-.75.024-1.036.024l.003 5.062c.332.001.737.011 1.179.023 1.46.037 3.323.085 4.296-.163a3 3 0 0 0 1.19-.594c.475-.576.734-1.233.673-1.99-.054-.665-.371-1.317-.902-1.729-1-.776-3.621-.691-5.403-.634zM61.897 16.201a7.504 7.504 0 0 0-14.875 1.979 7.504 7.504 0 0 0 14.875-1.98zm-7.951-3.268c.834-.041 1.569-.027 2.309.423.83.506 1.346 1.37 1.571 2.299.319 1.316.244 3.129-.496 4.3-.53.839-1.27 1.21-2.206 1.416-.898.09-1.789.006-2.559-.51-.811-.545-1.284-1.433-1.467-2.374-.261-1.336-.179-3.073.629-4.217.554-.785 1.293-1.172 2.219-1.336zM77.999 16.156a7.494 7.494 0 1 0-14.847 2.05A7.494 7.494 0 0 0 78 16.156zm-8.01-3.222c.811-.067 1.596-.041 2.325.367.866.485 1.395 1.336 1.641 2.277.354 1.351.284 3.093-.456 4.311-.524.863-1.271 1.265-2.226 1.479-.894.116-1.776.016-2.545-.489-.821-.54-1.297-1.418-1.497-2.361-.281-1.333-.19-3.05.587-4.208.527-.786 1.262-1.188 2.17-1.375zM80.991 4.27q.084-.008.168-.011c.557-.02 1.799-.128 2.177.383.161.217.185.672.205.94.085 1.132.016 2.316.016 3.453l.001 6.695c.792-.941 1.703-1.803 2.538-2.709.825-.894 1.617-1.923 2.531-2.719.218-.19.383-.29.664-.367.584-.159 2.698-.277 3.143.04.114.081.21.238.202.381-.04.637-4.249 4.788-4.983 5.514a579 579 0 0 0 4.085 5.861c.342.496 1.314 1.561 1.189 2.176a.5.5 0 0 1-.251.316c-.631.348-3.056.119-3.813-.128-.541-.544-.982-1.33-1.417-1.962l-2.634-3.841-1.259 1.094c-.005 1.007.296 3.971-.351 4.646-.29.303-.669.326-1.063.33-.603.006-1.769.107-2.209-.324-.113-1.16-.075-2.335-.076-3.499l-.002-4.972.001-6.813c0-1.211-.043-2.44.013-3.649.008-.163.012-.303.109-.442.232-.335.652-.341 1.019-.391zM106.602 9.803c.795-.017 2.377-.193 3.092.103.268.111.39.385.51.635.509 1.061.842 2.284 1.252 3.392.713 1.928 1.481 3.835 2.204 5.759.42-1.086 3.322-9.174 3.797-9.577.233-.197.675-.24.966-.248.612-.018 1.755-.153 2.219.274.117.276.102.426.034.722-.238 1.032-.743 2.104-1.113 3.098l-2.381 6.398-1.609 4.362c-.323.88-.608 1.822-1.028 2.659a5.4 5.4 0 0 1-.875 1.285c-.855.916-1.974 1.31-3.206 1.353-.528.018-1.434.117-1.841-.261-.26-.526-.282-1.753-.114-2.32.163-.552 1.373-.447 1.86-.721.785-.441.999-1.311 1.201-2.119-.63-1.906-5.376-13.56-5.33-14.219.02-.286.155-.409.362-.574zM98.805 9.747c.398-.061.835-.044 1.24-.04 1.609.016 3.409.355 4.567 1.565.532.556.921 1.397.862 2.181-.01.134-.047.325-.161.406-.578.408-2.155.328-2.842.236-.609-.082-.562-.489-.938-.935-.414-.491-1.019-.732-1.649-.777-.701-.051-1.587.177-2.109.669-.23.217-.473.777-.436 1.091.162 1.366 4.012 1.542 5.12 1.821.94.237 1.907.589 2.658 1.221.712.6 1.034 1.417 1.107 2.332.089 1.127-.24 2.206-.987 3.059-1.299 1.482-3.193 1.918-5.076 2.056-1.448.049-3.006-.149-4.308-.818-.945-.486-1.798-1.244-2.113-2.29-.129-.427-.215-.928.012-1.333.658-.516 2.457-.314 3.256-.285.27.41.434.892.803 1.231.621.572 1.536.745 2.356.704.67-.033 1.384-.224 1.833-.756a1.44 1.44 0 0 0 .355-1.058c-.148-1.55-3.966-1.544-5.147-1.817-.853-.196-1.723-.542-2.414-1.09-.728-.578-1.193-1.355-1.281-2.287a4.37 4.37 0 0 1 .977-3.148c1.094-1.326 2.667-1.776 4.316-1.937z"/>
</svg>