<svg>
    <defs>
        <symbol id="icon-arrow" viewBox="0 0 31 32">
            <path d="M20.855 11.255 15.36 16.75l-5.495-5.495-1.81 1.81 7.305 7.305 7.305-7.305-1.81-1.81z"/>
        </symbol>
        <symbol id="icon-icon" viewBox="0 0 24 32">
            <path d="M12.191 19.565c3.362 0 6.095-2.734 6.095-6.095s-2.734-6.095-6.095-6.095c-3.362 0-6.095 2.734-6.095 6.095s2.734 6.095 6.095 6.095zM12.191 10.423c1.681 0 3.048 1.367 3.048 3.048s-1.367 3.048-3.048 3.048c-1.681 0-3.048-1.367-3.048-3.048s1.367-3.048 3.048-3.048z"></path>
            <path d="M11.307 31.472c0.258 0.184 0.567 0.283 0.884 0.283s0.626-0.099 0.884-0.283c0.463-0.328 11.351-8.189 11.307-18.002 0-6.722-5.469-12.19-12.191-12.19s-12.19 5.469-12.19 12.183c-0.044 9.821 10.843 17.682 11.307 18.010zM12.191 4.327c5.042 0 9.143 4.101 9.143 9.15 0.032 6.763-6.686 12.835-9.143 14.827-2.455-1.993-9.175-8.067-9.143-14.834 0-5.042 4.101-9.143 9.143-9.143z"></path>
        </symbol>
        <symbol id="icon-email-black-18dp-1" viewBox="0 0 24 32">
            <path d="M20 8h-16c-1.1 0-1.99 0.9-1.99 2l-0.010 12c0 1.1 0.9 2 2 2h16c1.1 0 2-0.9 2-2v-12c0-1.1-0.9-2-2-2zM19.6 12.25l-7.070 4.42c-0.32 0.2-0.74 0.2-1.060 0l-7.070-4.42c-0.25-0.16-0.4-0.43-0.4-0.72 0-0.67 0.73-1.070 1.3-0.72l6.7 4.19 6.7-4.19c0.57-0.35 1.3 0.050 1.3 0.72 0 0.29-0.15 0.56-0.4 0.72z"></path>
        </symbol>
        <symbol id="icon-phone-black-18dp-1" viewBox="0 0 24 32">
            <path d="M19.635 18.487l-2.451-0.28c-0.589-0.067-1.167 0.135-1.582 0.55l-1.775 1.775c-2.731-1.389-4.969-3.618-6.359-6.359l1.785-1.785c0.415-0.415 0.618-0.994 0.55-1.582l-0.28-2.432c-0.116-0.975-0.936-1.708-1.92-1.708h-1.669c-1.090 0-1.997 0.907-1.93 1.997 0.511 8.24 7.102 14.821 15.332 15.332 1.090 0.068 1.997-0.839 1.997-1.93v-1.669c0.010-0.975-0.724-1.795-1.698-1.911z"></path>
        </symbol>
        <symbol id="icon-right-arrow-alt" viewBox="0 0 31 32">
            <path d="M14.455 22.406l1.81 1.81 8.585-8.585-8.585-8.585-1.81 1.81 5.495 5.495h-12.27v2.56h12.27l-5.495 5.495z"></path>
        </symbol>
        <symbol id="icon-left-arrow-alt" viewBox="0 0 31 32">
            <path d="M16.265 22.406l-5.495-5.495h12.27v-2.56h-12.27l5.495-5.495-1.81-1.81-8.585 8.585 8.585 8.585 1.81-1.81z"></path>
        </symbol>
        <symbol id="icon-chevron-right" viewBox="0 0 32 32">
            <path d="M12.852 22.867l7.305-7.305-7.305-7.305-1.81 1.81 5.495 5.495-5.495 5.495 1.81 1.81z"></path>
        </symbol>
    </defs>
</svg>